<?xml version="1.0" standalone="no"?>
<!DOCTYPE svg PUBLIC "-//W3C//DTD SVG 1.1//EN" "http://www.w3.org/Graphics/SVG/1.1/DTD/svg11.dtd"> 
<svg xmlns:svg="http://www.w3.org/2000/svg" xmlns="http://www.w3.org/2000/svg" 
  version="1.1" baseProfile="full" width="920" height="680" viewBox="0 0 920 680">
<defs>
  <style type="text/css">@import url(http://fonts.googleapis.com/css?family=Open+Sans:800);</style>
</defs>

  <rect x="0" y="0" 
          width="920" height="680"
         
           style="fill: #E51837;"/>

  <text x="45" y="200" 
       style="font-family: 'Open Sans', sans-serif;fill: white;stroke-width:3;stroke:black"
        font-size="100"
        >
    Model S Control
  </text>

    <text x="500" y="250" 
       style="font-family: 'Open Sans', sans-serif;fill: white;stroke-width:2;stroke:black"
        font-size="40"
        >
      by Trevor S Stone
  </text>

    <svg xmlns:svg="http://www.w3.org/2000/svg" xmlns="http://www.w3.org/2000/svg" 
version="1.1" baseProfile="full" x="90" y="300" width="800" height="400" viewBox="0 0 466 200"
>

  <g id="cargroup" opacity="1"
  style="fill:  rgb(28, 28, 28);
  stroke: #444"
   
  stroke="black" stroke-width="1">
    <g>
      <path id="bodytop" d="
        M 70 98
        Q 70 75 84 40
        S 100 30 128 30
        Q 140 30 145 32
        Q 143 32 143 35
        S 143 40 148 43
        Q 180 38 208 39
        Q 240 38 270 42
        Q 277 42 277 36
        Q 280 35 287 36
        Q 300 30 340 39

        Q 355 45 360 65

        Q 363 70 365 75

        Q 369 95 368 98" 
      />

      <path id="rddoor" d="
        M 150 32
        Q 143 32 143 35
        S 143 40 148 43
        Q 180 38 208 39
        L 210 35
        Q 180 35 150 32"
      />

      <path id="rddooropen" d="
        M 150 32
        Q 143 32 143 35
        S 143 40 148 43
        Q 180 38 208 39
        L 210 35
        Q 180 35 150 32
        " 

        transform="rotate(30,208,39)"
        style="display:none;"
      />

      <path id="fddoor" d="
        M 208 39
        Q 240 38 270 42
        Q 277 42 277 36
        Q 270 34.5 266 35
        Q 262 28 257 25
        Q 253 23 250 23
        L 255 35
        Q 230 34 210 35
        Z
        " 
      />

      <path id="fddooropen" d="
        M 208 39
        Q 240 38 270 42
        Q 277 42 277 36
        Q 270 34.5 266 35
        Q 262 28 257 25
        Q 253 23 250 23
        L 255 35
        Q 230 34 210 35
        Z
        " 
                style="display:none;"

        transform="rotate(30,275,37)"

      />

      <path class="fwindow" d="
        M 300 99
        Q 300 65 285 49
        L 235 55
        Q 245 65 245 99
        "
        fill="grey"
      />

      <path class="rwindow" d="
        M 88 99
        Q 88 60 105 60
        Q 120 59 140 60
        Q 138 75 138 99
        "
        fill="grey"
      />
      <path class="roof" d="
        M 138 98.5
        Q 138 75 140 60
        L 235 55
        Q 245 65 245 98.5
        "
        fill="none"
      />
      <path class="rsunroof sunroof" d="
        M 138 99
        Q 138 75 140 62
        L 187 62
        L 187 99
        "
        fill="grey"
      />

      <path class="hole sunroof" d="
        M 188 99
        L 188 62
        L 230 62
        Q 233 80 233 99
        "
        fill="#CCC"
        stroke="none"
      />


      <path class="fsunroof sunroof" d="
        M 188 99
        L 188 62
        L 230 62
        Q 233 80 233 99
        "
        fill="grey"
      />

    </g>

    <g transform="translate(0, 195) scale(1, -1) " >
      <path id="bodybot" d="
        M 70 98
        Q 70 75 84 40
        S 100 30 128 30
        Q 140 30 145 32
        Q 143 32 143 35
        S 143 40 148 43
        Q 180 38 208 39
        Q 240 38 270 42
        Q 277 42 277 36
        Q 280 35 287 36
        Q 300 30 340 39

        Q 355 45 360 65

        Q 363 70 365 75

        Q 369 95 368 98

        " 
      />
      <path id="rpdoor" d="
        M 150 32
        Q 143 32 143 35
        S 143 40 148 43
        Q 180 38 208 39
        L 210 35
        Q 180 35 150 32
        " 
      />
      <path id="rpdooropen" d="
        M 150 32
        Q 143 32 143 35
        S 143 40 148 43
        Q 180 38 208 39
        L 210 35
        Q 180 35 150 32
        " 
        style="display:none"
        transform="rotate(30,208,39)"
      />

      <path id="fpdoor" d="
        M 208 39
        Q 240 38 270 42
        Q 277 42 277 36
        Q 270 34.5 266 35
        Q 262 28 257 25
        Q 253 23 250 23
        L 255 35
        Q 230 34 210 35
        Z
        " 
      />

      <path id="fpdooropen" d="
        M 208 39
        Q 240 38 270 42
        Q 277 42 277 36
        Q 270 34.5 266 35
        Q 262 28 257 25
        Q 253 23 250 23
        L 255 35
        Q 230 34 210 35
        Z
        " 
        style="display:none"
        transform="rotate(30,275,37)"
      />
      <path class="fwindow" d="
        M 300 99
        Q 300 65 285 49
        L 235 55
        Q 245 65 245 99
        "
        fill="grey"
      />
      <path class="rwindow" d="
        M 88 99
        Q 88 60 105 60
        Q 120 59 140 60
        Q 138 75 138 99
        "
        fill="grey"
      />
      <path class="roof" d="
        M 138 98.5
        Q 138 75 140 60
        L 235 55
        Q 245 65 245 98.5
        "
        fill="none"
      />

      <path class="rsunroof sunroof" d="
        M 138 99
        Q 138 75 140 62
        L 187 62
        L 187 99
        "
        fill="grey"
      />
      <path class="hole sunroof" d="
        M 188 99
        L 188 62
        L 230 62
        Q 233 80 233 99
        "
        stroke="none"
        fill="#CCC"
      />

      <path class="fsunroof sunroof" d="
        M 188 100
        L 188 62
        L 230 62
        Q 233 80 233 100
        "
        fill="grey"
      />
    </g>
  </g>
</svg>
</svg>