<?xml version="1.0" standalone="no"?>
<!DOCTYPE svg PUBLIC "-//W3C//DTD SVG 1.1//EN" "http://www.w3.org/Graphics/SVG/1.1/DTD/svg11.dtd"> 
<svg xmlns:svg="http://www.w3.org/2000/svg" xmlns="http://www.w3.org/2000/svg" 
  version="1.1" baseProfile="full" width="98" height="54" viewBox="0 0 100 70">
  <svg x="0" y="5" width="98" height="54" viewBox="-1.5 -1.5 3 3">
    <path d="
      M 0 1
      A 1 1 0 0 0 .259 .966
      L .35 1.28
      L .6 1.20
      L .500 .866
      A 1 1 0 0 0 .707 .707
      L 1 1
      L 1.2 .8
      L .866 .500
      A 1 1 0 0 0 .966 .259
          L 1.35 .25
       L  1.35 .02
      L 1 0

    A 1 1 0 0 0  .966 -.259
      L 1.28 -.35 
      L 1.20 -.6 
      L  .866 -.500
      A 1 1 0 0 0  .707 -.707
      L 1 -1 
      L .8 -1.2 
      L  .500 -.866
      A 1 1 0 0 0  .259 -.966
          L  .25 -1.35
       L  .02 -1.35 
      L  0 -1

    A 1 1 0 0 0 -.259 -.966
      L -.35 -1.28
      L -.6 -1.20
      L -.500 -.866
      A 1 1 0 0 0 -.707 -.707
      L -1 -1
      L -1.2 -.8
      L -.866 -.500
      A 1 1 0 0 0 -.966 -.259
          L -1.35 -.25
       L  -1.35 -.02
      L -1 0

    A 1 1 0 0 0  -.966 .259
      L -1.28 .35 
      L -1.20 .6 
      L  -.866 .500
      A 1 1 0 0 0  -.707 .707
      L -1 1 
      L -.8 1.2 
      L  -.500 .866
      A 1 1 0 0 0  -.259 .966
          L  -.25 1.35
       L  -.02 1.35 
      Z
         
     M 0 .5
    A .5 .5 0 1 1  .0000001 .5
    Z

     " 
      style="fill: #828282;stroke-width:.05;stroke:black"/>
  </svg>
</svg>